<svg aria-roledescription="er" viewBox="0 0 377.59234619140625 342" style="max-width: 377.592px; background-color: white;" xmlns:xlink="http://www.w3.org/1999/xlink" xmlns="http://www.w3.org/2000/svg" width="100%" id="mermaid-0"><style>#mermaid-0{font-family:"trebuchet ms",verdana,arial,sans-serif;font-size:16px;fill:#000000;}#mermaid-0 .error-icon{fill:#552222;}#mermaid-0 .error-text{fill:#552222;stroke:#552222;}#mermaid-0 .edge-thickness-normal{stroke-width:2px;}#mermaid-0 .edge-thickness-thick{stroke-width:3.5px;}#mermaid-0 .edge-pattern-solid{stroke-dasharray:0;}#mermaid-0 .edge-pattern-dashed{stroke-dasharray:3;}#mermaid-0 .edge-pattern-dotted{stroke-dasharray:2;}#mermaid-0 .marker{fill:#000000;stroke:#000000;}#mermaid-0 .marker.cross{stroke:#000000;}#mermaid-0 svg{font-family:"trebuchet ms",verdana,arial,sans-serif;font-size:16px;}#mermaid-0 .entityBox{fill:#cde498;stroke:#13540c;}#mermaid-0 .attributeBoxOdd{fill:#ffffff;stroke:#13540c;}#mermaid-0 .attributeBoxEven{fill:#f2f2f2;stroke:#13540c;}#mermaid-0 .relationshipLabelBox{fill:hsl(78.1578947368, 58.4615384615%, 84.5098039216%);opacity:0.7;background-color:hsl(78.1578947368, 58.4615384615%, 84.5098039216%);}#mermaid-0 .relationshipLabelBox rect{opacity:0.5;}#mermaid-0 .relationshipLine{stroke:#000000;}#mermaid-0 .entityTitleText{text-anchor:middle;font-size:18px;fill:#000000;}#mermaid-0 :root{--mermaid-font-family:"trebuchet ms",verdana,arial,sans-serif;}</style><g/><defs><marker orient="auto" markerHeight="18" markerWidth="18" refY="9" refX="0" id="ONLY_ONE_START"><path d="M9,0 L9,18 M15,0 L15,18" fill="none" stroke="gray"/></marker></defs><defs><marker orient="auto" markerHeight="18" markerWidth="18" refY="9" refX="18" id="ONLY_ONE_END"><path d="M3,0 L3,18 M9,0 L9,18" fill="none" stroke="gray"/></marker></defs><defs><marker orient="auto" markerHeight="18" markerWidth="30" refY="9" refX="0" id="ZERO_OR_ONE_START"><circle r="6" cy="9" cx="21" fill="white" stroke="gray"/><path d="M9,0 L9,18" fill="none" stroke="gray"/></marker></defs><defs><marker orient="auto" markerHeight="18" markerWidth="30" refY="9" refX="30" id="ZERO_OR_ONE_END"><circle r="6" cy="9" cx="9" fill="white" stroke="gray"/><path d="M21,0 L21,18" fill="none" stroke="gray"/></marker></defs><defs><marker orient="auto" markerHeight="36" markerWidth="45" refY="18" refX="18" id="ONE_OR_MORE_START"><path d="M0,18 Q 18,0 36,18 Q 18,36 0,18 M42,9 L42,27" fill="none" stroke="gray"/></marker></defs><defs><marker orient="auto" markerHeight="36" markerWidth="45" refY="18" refX="27" id="ONE_OR_MORE_END"><path d="M3,9 L3,27 M9,18 Q27,0 45,18 Q27,36 9,18" fill="none" stroke="gray"/></marker></defs><defs><marker orient="auto" markerHeight="36" markerWidth="57" refY="18" refX="18" id="ZERO_OR_MORE_START"><circle r="6" cy="18" cx="48" fill="white" stroke="gray"/><path d="M0,18 Q18,0 36,18 Q18,36 0,18" fill="none" stroke="gray"/></marker></defs><defs><marker orient="auto" markerHeight="36" markerWidth="57" refY="18" refX="39" id="ZERO_OR_MORE_END"><circle r="6" cy="18" cx="9" fill="white" stroke="gray"/><path d="M21,18 Q39,0 57,18 Q39,36 21,18" fill="none" stroke="gray"/></marker></defs><path style="stroke: gray; fill: none;" marker-start="url(#ZERO_OR_MORE_START)" marker-end="url(#ONLY_ONE_END)" d="M83.49701690673828,110L83.49701690673828,118.33333333333333C83.49701690673828,126.66666666666667,83.49701690673828,143.33333333333334,93.39669863382976,161.25884747708176C103.29638036092122,179.18436162083017,123.09574381510417,198.36872324166032,132.99542554219565,207.96090405207542L142.8951072692871,217.5530848624905" class="er relationshipLine"/><path style="stroke: gray; fill: none;" marker-start="url(#ZERO_OR_MORE_START)" marker-end="url(#ONLY_ONE_END)" d="M302.29319763183594,99L302.29319763183594,109.16666666666667C302.29319763183594,119.33333333333333,302.29319763183594,139.66666666666666,292.39351590474445,159.42551414374842C282.493834177653,179.18436162083017,262.69447072347003,198.36872324166032,252.79478899637857,207.96090405207542L242.8951072692871,217.5530848624905" class="er relationshipLine"/><g transform="translate(142.8951072692871,210 )" id="entity-users-51d8cdf3-3fb4-4d61-98ff-7e53923d1932"><rect height="112" width="100" y="0" x="0" class="er entityBox"/><text style="dominant-baseline: middle; text-anchor: middle; font-size: 12px;" transform="translate(50,12)" y="0" x="0" id="text-entity-users-51d8cdf3-3fb4-4d61-98ff-7e53923d1932" class="er entityLabel">users</text><rect height="22" width="38.42206319173177" y="24" x="0" class="er attributeBoxOdd"/><text style="dominant-baseline: middle; font-size: 10.2px;" transform="translate(5,35)" y="0" x="0" id="text-entity-users-51d8cdf3-3fb4-4d61-98ff-7e53923d1932-attr-1-type" class="er entityLabel">String</text><rect height="22" width="37.86424763997396" y="24" x="38.42206319173177" class="er attributeBoxOdd"/><text style="dominant-baseline: middle; font-size: 10.2px;" transform="translate(43.42206319173177,35)" y="0" x="0" id="text-entity-users-51d8cdf3-3fb4-4d61-98ff-7e53923d1932-attr-1-name" class="er entityLabel">id</text><rect height="22" width="23.71368916829427" y="24" x="76.28631083170573" class="er attributeBoxOdd"/><text style="dominant-baseline: middle; font-size: 10.2px;" transform="translate(81.28631083170573,35)" y="0" x="0" id="text-entity-users-51d8cdf3-3fb4-4d61-98ff-7e53923d1932-attr-1-key" class="er entityLabel">PK</text><rect height="22" width="38.42206319173177" y="46" x="0" class="er attributeBoxEven"/><text style="dominant-baseline: middle; font-size: 10.2px;" transform="translate(5,57)" y="0" x="0" id="text-entity-users-51d8cdf3-3fb4-4d61-98ff-7e53923d1932-attr-2-type" class="er entityLabel">String</text><rect height="22" width="37.86424763997396" y="46" x="38.42206319173177" class="er attributeBoxEven"/><text style="dominant-baseline: middle; font-size: 10.2px;" transform="translate(43.42206319173177,57)" y="0" x="0" id="text-entity-users-51d8cdf3-3fb4-4d61-98ff-7e53923d1932-attr-2-name" class="er entityLabel">name</text><rect height="22" width="23.71368916829427" y="46" x="76.28631083170573" class="er attributeBoxEven"/><text style="dominant-baseline: middle; font-size: 10.2px;" transform="translate(81.28631083170573,57)" y="0" x="0" id="text-entity-users-51d8cdf3-3fb4-4d61-98ff-7e53923d1932-attr-2-key" class="er entityLabel"/><rect height="22" width="38.42206319173177" y="68" x="0" class="er attributeBoxOdd"/><text style="dominant-baseline: middle; font-size: 10.2px;" transform="translate(5,79)" y="0" x="0" id="text-entity-users-51d8cdf3-3fb4-4d61-98ff-7e53923d1932-attr-3-type" class="er entityLabel">String</text><rect height="22" width="37.86424763997396" y="68" x="38.42206319173177" class="er attributeBoxOdd"/><text style="dominant-baseline: middle; font-size: 10.2px;" transform="translate(43.42206319173177,79)" y="0" x="0" id="text-entity-users-51d8cdf3-3fb4-4d61-98ff-7e53923d1932-attr-3-name" class="er entityLabel">email</text><rect height="22" width="23.71368916829427" y="68" x="76.28631083170573" class="er attributeBoxOdd"/><text style="dominant-baseline: middle; font-size: 10.2px;" transform="translate(81.28631083170573,79)" y="0" x="0" id="text-entity-users-51d8cdf3-3fb4-4d61-98ff-7e53923d1932-attr-3-key" class="er entityLabel"/><rect height="22" width="38.42206319173177" y="90" x="0" class="er attributeBoxEven"/><text style="dominant-baseline: middle; font-size: 10.2px;" transform="translate(5,101)" y="0" x="0" id="text-entity-users-51d8cdf3-3fb4-4d61-98ff-7e53923d1932-attr-4-type" class="er entityLabel">String</text><rect height="22" width="37.86424763997396" y="90" x="38.42206319173177" class="er attributeBoxEven"/><text style="dominant-baseline: middle; font-size: 10.2px;" transform="translate(43.42206319173177,101)" y="0" x="0" id="text-entity-users-51d8cdf3-3fb4-4d61-98ff-7e53923d1932-attr-4-name" class="er entityLabel">senha</text><rect height="22" width="23.71368916829427" y="90" x="76.28631083170573" class="er attributeBoxEven"/><text style="dominant-baseline: middle; font-size: 10.2px;" transform="translate(81.28631083170573,101)" y="0" x="0" id="text-entity-users-51d8cdf3-3fb4-4d61-98ff-7e53923d1932-attr-4-key" class="er entityLabel"/></g><g transform="translate(20,20 )" id="entity-mensages-34f2acb0-d59d-4ee3-861a-e4d1ce49fea8"><rect height="90" width="126.99403381347656" y="0" x="0" class="er entityBox"/><text style="dominant-baseline: middle; text-anchor: middle; font-size: 12px;" transform="translate(63.49701690673828,12)" y="0" x="0" id="text-entity-mensages-34f2acb0-d59d-4ee3-861a-e4d1ce49fea8" class="er entityLabel">mensages</text><rect height="22" width="54.095550537109375" y="24" x="0" class="er attributeBoxOdd"/><text style="dominant-baseline: middle; font-size: 10.2px;" transform="translate(5,35)" y="0" x="0" id="text-entity-mensages-34f2acb0-d59d-4ee3-861a-e4d1ce49fea8-attr-1-type" class="er entityLabel">String</text><rect height="22" width="50.21080017089844" y="24" x="54.095550537109375" class="er attributeBoxOdd"/><text style="dominant-baseline: middle; font-size: 10.2px;" transform="translate(59.095550537109375,35)" y="0" x="0" id="text-entity-mensages-34f2acb0-d59d-4ee3-861a-e4d1ce49fea8-attr-1-name" class="er entityLabel">id</text><rect height="22" width="22.68768310546875" y="24" x="104.30635070800781" class="er attributeBoxOdd"/><text style="dominant-baseline: middle; font-size: 10.2px;" transform="translate(109.30635070800781,35)" y="0" x="0" id="text-entity-mensages-34f2acb0-d59d-4ee3-861a-e4d1ce49fea8-attr-1-key" class="er entityLabel">PK</text><rect height="22" width="54.095550537109375" y="46" x="0" class="er attributeBoxEven"/><text style="dominant-baseline: middle; font-size: 10.2px;" transform="translate(5,57)" y="0" x="0" id="text-entity-mensages-34f2acb0-d59d-4ee3-861a-e4d1ce49fea8-attr-2-type" class="er entityLabel">String</text><rect height="22" width="50.21080017089844" y="46" x="54.095550537109375" class="er attributeBoxEven"/><text style="dominant-baseline: middle; font-size: 10.2px;" transform="translate(59.095550537109375,57)" y="0" x="0" id="text-entity-mensages-34f2acb0-d59d-4ee3-861a-e4d1ce49fea8-attr-2-name" class="er entityLabel">mensage</text><rect height="22" width="22.68768310546875" y="46" x="104.30635070800781" class="er attributeBoxEven"/><text style="dominant-baseline: middle; font-size: 10.2px;" transform="translate(109.30635070800781,57)" y="0" x="0" id="text-entity-mensages-34f2acb0-d59d-4ee3-861a-e4d1ce49fea8-attr-2-key" class="er entityLabel"/><rect height="22" width="54.095550537109375" y="68" x="0" class="er attributeBoxOdd"/><text style="dominant-baseline: middle; font-size: 10.2px;" transform="translate(5,79)" y="0" x="0" id="text-entity-mensages-34f2acb0-d59d-4ee3-861a-e4d1ce49fea8-attr-3-type" class="er entityLabel">DateTime</text><rect height="22" width="50.21080017089844" y="68" x="54.095550537109375" class="er attributeBoxOdd"/><text style="dominant-baseline: middle; font-size: 10.2px;" transform="translate(59.095550537109375,79)" y="0" x="0" id="text-entity-mensages-34f2acb0-d59d-4ee3-861a-e4d1ce49fea8-attr-3-name" class="er entityLabel">date</text><rect height="22" width="22.68768310546875" y="68" x="104.30635070800781" class="er attributeBoxOdd"/><text style="dominant-baseline: middle; font-size: 10.2px;" transform="translate(109.30635070800781,79)" y="0" x="0" id="text-entity-mensages-34f2acb0-d59d-4ee3-861a-e4d1ce49fea8-attr-3-key" class="er entityLabel"/></g><g transform="translate(246.99403381347656,31 )" id="entity-response-79aab818-d58b-4fe3-b9e0-2edc25f82aad"><rect height="68" width="110.59832763671875" y="0" x="0" class="er entityBox"/><text style="dominant-baseline: middle; text-anchor: middle; font-size: 12px;" transform="translate(55.299163818359375,12)" y="0" x="0" id="text-entity-response-79aab818-d58b-4fe3-b9e0-2edc25f82aad" class="er entityLabel">response</text><rect height="22" width="37.39605712890625" y="24" x="0" class="er attributeBoxOdd"/><text style="dominant-baseline: middle; font-size: 10.2px;" transform="translate(5,35)" y="0" x="0" id="text-entity-response-79aab818-d58b-4fe3-b9e0-2edc25f82aad-attr-1-type" class="er entityLabel">String</text><rect height="22" width="50.51458740234375" y="24" x="37.39605712890625" class="er attributeBoxOdd"/><text style="dominant-baseline: middle; font-size: 10.2px;" transform="translate(42.39605712890625,35)" y="0" x="0" id="text-entity-response-79aab818-d58b-4fe3-b9e0-2edc25f82aad-attr-1-name" class="er entityLabel">id</text><rect height="22" width="22.68768310546875" y="24" x="87.91064453125" class="er attributeBoxOdd"/><text style="dominant-baseline: middle; font-size: 10.2px;" transform="translate(92.91064453125,35)" y="0" x="0" id="text-entity-response-79aab818-d58b-4fe3-b9e0-2edc25f82aad-attr-1-key" class="er entityLabel">PK</text><rect height="22" width="37.39605712890625" y="46" x="0" class="er attributeBoxEven"/><text style="dominant-baseline: middle; font-size: 10.2px;" transform="translate(5,57)" y="0" x="0" id="text-entity-response-79aab818-d58b-4fe3-b9e0-2edc25f82aad-attr-2-type" class="er entityLabel">String</text><rect height="22" width="50.51458740234375" y="46" x="37.39605712890625" class="er attributeBoxEven"/><text style="dominant-baseline: middle; font-size: 10.2px;" transform="translate(42.39605712890625,57)" y="0" x="0" id="text-entity-response-79aab818-d58b-4fe3-b9e0-2edc25f82aad-attr-2-name" class="er entityLabel">response</text><rect height="22" width="22.68768310546875" y="46" x="87.91064453125" class="er attributeBoxEven"/><text style="dominant-baseline: middle; font-size: 10.2px;" transform="translate(92.91064453125,57)" y="0" x="0" id="text-entity-response-79aab818-d58b-4fe3-b9e0-2edc25f82aad-attr-2-key" class="er entityLabel"/></g><rect height="14" width="23.958984375" y="163.6795654296875" x="87.38449096679688" class="er relationshipLabelBox"/><text style="text-anchor: middle; dominant-baseline: middle; font-size: 12px;" y="170.6795654296875" x="99.36398315429688" id="rel1" class="er relationshipLabel">user</text><rect height="14" width="23.958984375" y="158.90267944335938" x="276.8203125" class="er relationshipLabelBox"/><text style="text-anchor: middle; dominant-baseline: middle; font-size: 12px;" y="165.90267944335938" x="288.7998046875" id="rel2" class="er relationshipLabel">user</text></svg>